<?xml version="1.0" encoding="UTF-8" standalone="no"?>
<svg width="99px" height="15px" viewBox="0 0 99 15" version="1.1" xmlns="http://www.w3.org/2000/svg" xmlns:xlink="http://www.w3.org/1999/xlink">
    <!-- Generator: Sketch 3.6.1 (26313) - http://www.bohemiancoding.com/sketch -->
    <title>startifi_logo</title>
    <desc>Created with Sketch.</desc>
    <defs></defs>
    <g id="Pages" stroke="none" stroke-width="1" fill="none" fill-rule="evenodd">
        <g id="Contact-Us" transform="translate(-24.000000, -23.000000)" fill="#000">
            <g id="startifi_logo" transform="translate(24.000000, 23.000000)">
                <path d="M0.671755135,11.6543942 C0.671755135,11.6543942 1.99407405,12.9281617 4.51242,12.9281617 C7.01096595,12.9281617 8.08123622,11.9572788 8.08123622,10.5100411 C8.08123622,9.06115122 6.99063081,8.43610752 4.42947405,7.70092395 C1.61626865,6.85780332 0.0413659459,6.01523339 0.0413659459,3.98535577 C0.0413659459,1.80238374 1.84691189,0.550644231 4.63924703,0.550644231 C7.66222541,0.550644231 9.00594973,1.7599799 9.00594973,1.7599799 L8.35415514,2.77491871 C8.35415514,2.77491871 7.07357676,1.71702535 4.63924703,1.71702535 C2.75022,1.71702535 1.25933351,2.49406206 1.25933351,3.98535577 C1.25933351,5.25912325 2.37134432,5.80046066 4.91109568,6.53454283 C7.95547946,7.39803934 9.29920378,8.43610752 9.29920378,10.4880131 C9.29920378,12.5399187 7.87146324,14.0961949 4.53382541,14.0961949 C1.44770108,14.0961949 0.000160540534,12.6043505 0.000160540534,12.6043505 L0.671755135,11.6543942 Z" id="Fill-1"></path>
                <path d="M13.4807497,0.831611014 L23.6616957,0.831611014 L23.6616957,1.97596416 L19.1478308,1.97596416 L19.1478308,13.7928698 L17.9732092,13.7928698 L17.9732092,1.97596416 L13.4807497,1.97596416 L13.4807497,0.831611014 Z" id="Fill-4"></path>
                <path d="M34.0364676,1.97601923 L30.2145324,1.97601923 L30.2145324,8.24077448 L34.2451703,8.24077448 C36.2818946,8.24077448 37.8139865,7.29026748 37.8139865,5.1519021 C37.8139865,2.97003147 36.3033,1.97601923 34.0364676,1.97601923 L34.0364676,1.97601923 Z M29.0185054,0.831666084 L34.0364676,0.831666084 C37.1852027,0.831666084 39.0319541,2.29983042 39.0319541,5.10894755 C39.0319541,7.31229545 37.7941865,8.65104545 35.9249595,9.14777622 L35.9249595,9.23478671 L39.3262784,13.4900402 L39.3262784,13.7929248 L38.0457,13.7929248 L34.4982892,9.38622902 L30.2145324,9.38622902 L30.2145324,13.7929248 L29.0185054,13.7929248 L29.0185054,0.831666084 Z" id="Fill-6"></path>
                <path d="M49.61682,3.33663199 L49.4493227,3.33663199 L46.5092903,9.92629983 L46.3835335,10.1631005 L52.7029443,10.1631005 L52.5766524,9.92629983 L49.61682,3.33663199 Z M49.3867119,0.831500874 L49.6799659,0.831500874 L55.8313443,13.7927596 L54.4662146,13.7927596 L53.2701876,11.330583 L45.8178957,11.330583 L44.6202632,13.7927596 L43.2765389,13.7927596 L49.3867119,0.831500874 Z" id="Fill-8"></path>
                <path d="M58.6895546,0.831611014 L68.8705005,0.831611014 L68.8705005,1.97596416 L64.3566357,1.97596416 L64.3566357,13.7928698 L63.1820141,13.7928698 L63.1820141,1.97596416 L58.6895546,1.97596416 L58.6895546,0.831611014 Z" id="Fill-10"></path>
                <path d="M74.5641243,13.79309 L75.7392811,13.79309 L75.7392811,6.31789773 L74.5641243,6.31789773 L74.5641243,13.79309 Z M74.3543514,2.38645542 C74.3543514,1.91120192 74.7102162,1.54388549 75.1517027,1.54388549 C75.6135243,1.54388549 75.9704595,1.91120192 75.9704595,2.38645542 C75.9704595,2.86170892 75.6135243,3.20699738 75.1517027,3.20699738 C74.7102162,3.20699738 74.3543514,2.86170892 74.3543514,2.38645542 L74.3543514,2.38645542 Z" id="Fill-12"></path>
                <path d="M83.1727362,0.831611014 L92.2844822,0.831611014 L92.2844822,1.97596416 L84.3692984,1.97596416 L84.3692984,6.83698689 L91.3811741,6.83698689 L91.3811741,7.98189073 L84.3692984,7.98189073 L84.3692984,13.7928698 L83.1727362,13.7928698 L83.1727362,0.831611014 Z" id="Fill-14"></path>
                <path d="M97.2634865,13.79309 L98.4386432,13.79309 L98.4386432,6.31789773 L97.2634865,6.31789773 L97.2634865,13.79309 Z M97.0537135,2.38645542 C97.0537135,1.91120192 97.4095784,1.54388549 97.8510649,1.54388549 C98.3128865,1.54388549 98.6698216,1.91120192 98.6698216,2.38645542 C98.6698216,2.86170892 98.3128865,3.20699738 97.8510649,3.20699738 C97.4095784,3.20699738 97.0537135,2.86170892 97.0537135,2.38645542 L97.0537135,2.38645542 Z" id="Fill-15"></path>
            </g>
        </g>
    </g>
</svg>